<svg width="137" height="335" viewBox="0 0 137 335" fill="none" xmlns="http://www.w3.org/2000/svg">
<path d="M57.598 12.4788C57.6908 12.6207 57.7662 12.7761 57.8149 12.9455L62.1236 27.9843C62.3405 28.742 62.0169 29.5497 61.3378 29.9466L41.7125 41.41C41.7099 41.4115 41.7075 41.4129 41.705 41.4144L22.0219 52.7784C21.3372 53.1737 20.4708 53.051 19.9211 52.4809L9.0227 41.1802C8.89708 41.0499 8.7976 40.9028 8.72033 40.747C7.22005 41.0791 5.61012 40.4225 4.80073 39.0205C3.80206 37.2908 4.39431 35.0727 6.12103 34.0758C7.84775 33.0789 10.0648 33.675 11.0634 35.4048C11.6258 36.3789 11.6835 37.5077 11.3183 38.4862L17.8188 40.2604C19.4617 40.7089 21.249 40.4779 22.7226 39.6271C24.465 38.6211 25.6477 36.833 25.8921 34.8403L27.4693 21.9841C26.5746 21.7438 25.7707 21.1622 25.2714 20.2974C24.2727 18.5677 24.865 16.3496 26.5917 15.3527C28.3184 14.3558 30.5354 14.9519 31.5341 16.6817C32.0184 17.5205 32.1256 18.4739 31.9135 19.3476C31.9167 19.3489 31.92 19.3497 31.9233 19.3512L43.8111 24.4663C45.6663 25.2647 47.8169 25.1392 49.5643 24.1303C51.0515 23.2717 52.115 21.8841 52.5582 20.2234L54.3009 13.697C53.2562 13.5327 52.2907 12.9169 51.7214 11.9309C50.7227 10.2011 51.315 7.98308 53.0417 6.98616C54.7684 5.98924 56.9854 6.58537 57.9841 8.31511C58.7719 9.67958 58.5661 11.3457 57.598 12.4788ZM65.2165 34.0805C64.7402 33.2556 63.6864 32.9722 62.8629 33.4477L24.2926 55.7163C23.4691 56.1917 23.1876 57.246 23.6638 58.0709L25.7336 61.6559C26.2099 62.4808 27.2637 62.7642 28.0872 62.2887L66.6575 40.0201C67.481 39.5446 67.7625 38.4904 67.2862 37.6655L65.2165 34.0805Z" fill="#FFD700"/>
<path fill-rule="evenodd" clip-rule="evenodd" d="M137 99.5C137 123.84 120.746 144.384 98.5 150.869C93.7407 152.256 88.7073 153 83.5 153C78.2927 153 73.2593 152.256 68.5 150.869C46.2541 144.384 30 123.84 30 99.5C58.7602 85.0364 69.504 72.5298 83.5 46C95.0003 72.7984 106.265 84.7953 137 99.5Z" fill="#A07E67"/>
<path d="M83.5 46C113.047 46 137 69.9528 137 99.5C106.265 84.7953 95.0003 72.7984 83.5 46Z" fill="#3F2A2A"/>
<path d="M30 99.5C30 69.9528 53.9528 46 83.5 46C69.504 72.5298 58.7602 85.0364 30 99.5Z" fill="#3F2A2A"/>
<path fill-rule="evenodd" clip-rule="evenodd" d="M98.5 150.869C120.746 144.384 137 123.84 137 99.5V165.5H102.313L98.5 150.869ZM68.5 150.869C46.2541 144.384 30 123.84 30 99.5V165.5H65.3504L68.5 150.869Z" fill="#3F2A2A"/>
<path d="M83.5 153C78.2927 153 73.2593 152.256 68.5 150.869L65.3504 165.5L59 195H110L102.313 165.5L98.5 150.869C93.7407 152.256 88.7073 153 83.5 153Z" fill="#A07E67"/>
<path d="M61.9283 76.9261C54.0858 84.9837 44.4606 91.6068 30.5062 98.6842C30.938 70.0667 54.0511 46.9476 82.6664 46.5064C75.8368 59.379 69.76 68.8795 61.9283 76.9261ZM62.6449 77.6236C70.5368 69.5151 76.646 59.9692 83.4542 47.1551C89.0785 60.0921 94.7198 69.5849 102.682 77.6367C110.785 85.8317 121.263 92.5047 136.499 99.8144C136.36 123.789 120.303 143.992 98.3601 150.389C93.6458 151.763 88.6594 152.5 83.5 152.5C78.3406 152.5 73.3542 151.763 68.6399 150.389C46.6954 143.991 30.6371 123.785 30.5009 99.8076C44.7614 92.6132 54.6143 85.8745 62.6449 77.6236ZM103.393 76.9336C95.4998 68.9515 89.8971 59.5114 84.2624 46.5054C112.917 46.9094 136.072 70.0528 136.494 98.7025C121.543 91.4978 111.303 84.9337 103.393 76.9336ZM99.1058 151.211C118.082 145.492 132.655 129.613 136.5 109.897V165H102.699L99.1058 151.211ZM101.829 165.626L109.353 194.5H59.6191L65.8392 165.605L65.9694 165L68.8763 151.496C73.5278 152.802 78.4328 153.5 83.5 153.5C88.5751 153.5 93.4874 152.8 98.1453 151.49L101.666 165L101.829 165.626ZM64.9465 165H30.5V109.897C34.3467 129.62 48.9281 145.502 67.9137 151.216L64.9465 165Z" stroke="black"/>
<path fill-rule="evenodd" clip-rule="evenodd" d="M84 185.5C84 174.985 77.8759 165.901 69 161.619C65.5216 159.941 61.6207 159 57.5 159C42.8645 159 31 170.864 31 185.5C45 171 69 172 84 185.5Z" fill="#A07E67"/>
<path d="M57.5 212C72.1355 212 84 200.136 84 185.5C69 172 45 171 31 185.5C31 200.136 42.8645 212 57.5 212Z" fill="#F4ED31"/>
<path fill-rule="evenodd" clip-rule="evenodd" d="M137 185.5C137 170.864 125.136 159 110.5 159C106.379 159 102.478 159.941 99 161.619C90.1241 165.901 84 174.985 84 185.5C98 171 122 172 137 185.5Z" fill="#A07E67"/>
<path d="M110.5 212C125.136 212 137 200.136 137 185.5C122 172 98 171 84 185.5C84 200.136 95.8645 212 110.5 212Z" fill="#F4ED31"/>
<path d="M84 185.5C84 200.136 72.1355 212 57.5 212L31 323C72.7446 337.708 95.9786 338.751 137 323L110.5 212C95.8645 212 84 200.136 84 185.5Z" fill="#F4ED31"/>
<path d="M83.4991 185.723C83.3795 199.98 71.7851 211.5 57.5 211.5C43.208 211.5 31.6094 199.968 31.5008 185.702C45.2519 171.632 68.7058 172.56 83.4991 185.723ZM68.7827 162.069C77.1749 166.117 83.0584 174.541 83.4762 184.378C68.5829 171.716 45.5793 170.739 31.5288 184.265C32.1732 170.479 43.5544 159.5 57.5 159.5C61.5438 159.5 65.3707 160.423 68.7827 162.069ZM57.8954 212.497C70.8526 212.311 81.6011 202.998 84 190.699C86.3989 202.998 97.1474 212.311 110.105 212.497L136.412 322.69C116.13 330.445 100.237 334.051 84.2752 333.922C68.3114 333.793 52.2383 329.928 31.591 322.678L57.8954 212.497ZM136.499 185.723C136.379 199.98 124.785 211.5 110.5 211.5C96.208 211.5 84.6094 199.968 84.5008 185.702C98.2519 171.632 121.706 172.56 136.499 185.723ZM136.476 184.378C121.583 171.716 98.5793 170.739 84.5288 184.265C84.9864 174.477 90.857 166.102 99.2173 162.069C102.629 160.423 106.456 159.5 110.5 159.5C124.483 159.5 135.888 170.539 136.476 184.378Z" stroke="black"/>
</svg>
